HIERARCHY
ROOT Hips
{
  OFFSET -35.4901 99.2528 17.4586
  CHANNELS 6 Xposition Yposition Zposition Zrotation Xrotation Yrotation
  JOINT LeftUpLeg
  {
    OFFSET 8.64259 1.95398 -2.38835
    CHANNELS 3 Zrotation Xrotation Yrotation
    JOINT LeftLeg
    {
      OFFSET 43.7702 0 0
      CHANNELS 3 Zrotation Xrotation Yrotation
      JOINT LeftFoot
      {
        OFFSET 40.6238 0 0
        CHANNELS 3 Zrotation Xrotation Yrotation
        JOINT LeftToeBase
        {
          OFFSET 12.7242 0 0
          CHANNELS 3 Zrotation Xrotation Yrotation
          End Site
          {
            OFFSET 0 0 0
          }
        }
      }
    }
  }
  JOINT RightUpLeg
  {
    OFFSET -8.2249 1.95398 -2.59336
    CHANNELS 3 Zrotation Xrotation Yrotation
    JOINT RightLeg
    {
      OFFSET 43.5653 0 0
      CHANNELS 3 Zrotation Xrotation Yrotation
      JOINT RightFoot
      {
        OFFSET 40.6238 0 0
        CHANNELS 3 Zrotation Xrotation Yrotation
        JOINT RightToeBase
        {
          OFFSET 12.7242 0 0
          CHANNELS 3 Zrotation Xrotation Yrotation
          End Site
          {
            OFFSET 0 0 0
          }
        }
      }
    }
  }
  JOINT Spine
  {
    OFFSET 0.165834 0.87714 6.61349
    CHANNELS 3 Zrotation Xrotation Yrotation
    JOINT Spine1
    {
      OFFSET 7.38963 1.71661e-005 0
      CHANNELS 3 Zrotation Xrotation Yrotation
      JOINT Spine2
      {
        OFFSET 11.9445 1.14441e-005 0
        CHANNELS 3 Zrotation Xrotation Yrotation
        JOINT Spine3
        {
          OFFSET 14.7254 4.19617e-005 0
          CHANNELS 3 Zrotation Xrotation Yrotation
          JOINT Spine4
          {
            OFFSET 10.9679 0 0
            CHANNELS 3 Zrotation Xrotation Yrotation
            JOINT RightShoulder
            {
              OFFSET 2.46616 -1.6653 3.69651
              CHANNELS 3 Zrotation Xrotation Yrotation
              JOINT RightArm
              {
                OFFSET 13.0012 0 0
                CHANNELS 3 Zrotation Xrotation Yrotation
                JOINT RightForeArm
                {
                  OFFSET 28.7848 1.52588e-005 0
                  CHANNELS 3 Zrotation Xrotation Yrotation
                  JOINT RightHand
                  {
                    OFFSET 26.5688 1.52588e-005 0
                    CHANNELS 3 Zrotation Xrotation Yrotation
                    End Site
                    {
                      OFFSET 0 0 0
                    }
                  }
                }
              }
            }
            JOINT LeftShoulder
            {
              OFFSET 2.38034 -1.29275 -3.7523
              CHANNELS 3 Zrotation Xrotation Yrotation
              JOINT LeftArm
              {
                OFFSET 16.3182 6.10351e-005 0
                CHANNELS 3 Zrotation Xrotation Yrotation
                JOINT LeftForeArm
                {
                  OFFSET 27.0901 0 0
                  CHANNELS 3 Zrotation Xrotation Yrotation
                  JOINT LeftHand
                  {
                    OFFSET 24.5451 1.52588e-005 0
                    CHANNELS 3 Zrotation Xrotation Yrotation
                    End Site
                    {
                      OFFSET 0 0 0
                    }
                  }
                }
              }
            }
            JOINT Neck
            {
              OFFSET 5.0226 -0.0266342 0
              CHANNELS 3 Zrotation Xrotation Yrotation
              JOINT Head
              {
                OFFSET 6.69364 2.86102e-005 0
                CHANNELS 3 Zrotation Xrotation Yrotation
                End Site
                {
                  OFFSET 0 0 0
                }
              }
            }
          }
        }
      }
    }
  }
}
MOTION
Frames:	6
Frame Time:	0.0416667
24.9003 93.8368 -45.462 -98.511 -29.0187 -100.396 -174.39 13.3584 82.8249 -45.7829 11.4007 -3.78408 79.5111 8.99348 2.95835 14.5721 -0.241899 1.6136 -175.267 15.7601 83.6 -88.5913 -11.6963 -3.88781 67.5165 -4.52379 -3.19564 16.7527 -2.07447 5.59267 1.05619 7.53675 -88.8701 11.7959 2.63208 1.96305 0.126429 2.71588 1.84528 -22.411 1.9206 2.66315 -2.39837 1.92057 2.66315 90.7588 -25.0135 -107.2 50.3101 -9.5201 1.08189 9.68846 -23.4146 -3.93365 -21.6019 -0.0697874 -7.85125 -81.7524 -51.7024 91.2822 -9.48963 5.50239 -22.8843 3.13906 6.15718 -5.01456 2.47241 0.0539488 -0.955616 2.03299 2.76575 -6.11674 -8.61015 4.33383 -10.7436 
15.3357 101.74 -40.053 -103.397 -33.027 -96.0007 -176.904 0.288722 90.1074 -35.5467 10.1021 1.80216 66.1335 2.57699 1.66006 8.63059 -1.06194 2.531 -175.12 23.7792 93.5142 -80.0054 -2.92421 -3.23817 73.829 -7.64996 -3.85685 14.5785 -1.67653 4.80973 -0.0352271 7.74677 -90.0262 11.3855 -0.0822693 -0.0431142 -0.285557 -0.0840934 -0.0394536 -22.8204 -0.0655107 -0.0658587 -2.80772 -0.0654931 -0.0658632 90.3134 -25.1383 -108.096 48.0435 -9.22713 5.34214 7.99217 -21.053 -8.05801 -19.9256 0.25192 -9.8341 -83.7195 -45.1416 87.6196 -14.1053 11.0115 -23.967 1.64215 2.86048 -7.09048 0.764144 -0.0410493 -3.15174 -10.1851 4.45589 -7.7296 -8.51523 5.23422 -6.45379 
6.77744 105.256 -34.7171 -102.889 -41.6217 -92.9569 -174.718 -2.31184 92.1726 -28.6379 2.24569 -1.07799 65.6773 2.25726 -2.8318 10.2264 -1.44749 3.10065 -177.274 30.3582 95.8814 -66.48 -5.21834 -2.94965 75.5043 -7.88622 -2.34531 14.8996 -1.23111 3.9413 -1.0053 7.91756 -90.6517 11.028 -2.30318 -1.07591 -0.641243 -2.34832 -0.973463 -23.1845 -1.87336 -1.71847 -3.17189 -1.87337 -1.71847 90.7881 -26.5763 -106.494 46.6132 -6.09007 7.44724 7.59037 -20.1506 -8.05599 -19.6322 0.398261 -10.7126 -85.9069 -37.944 82.8638 -18.1521 15.0298 -32.7433 0.158353 7.13317 -2.03797 1.82538 -0.0923395 -4.41924 -9.93853 3.5228 -11.5807 -9.45882 4.2976 -2.14494 
-1.64706 103.767 -29.3944 -101.793 -49.2954 -89.3927 -174.302 -3.74118 93.7295 -18.3887 4.80745 -1.84405 64.2349 2.04634 -8.26581 16.8548 -5.63643 8.49085 179.83 30.7289 97.4515 -47.0563 -12.4372 -1.90602 75.6805 -7.97238 -3.24401 18.0832 -1.43703 4.25415 -1.73142 8.06417 -91.2589 10.7062 -4.02782 -2.13245 -0.959982 -4.11775 -1.95292 -23.5157 -3.20097 -3.2447 -3.50309 -3.20095 -3.2447 90.5422 -29.4261 -105.887 43.4775 -4.0941 9.29195 8.27898 -19.9052 -6.4576 -19.2604 0.393325 -10.8214 -86.7319 -40.6946 81.9847 -14.8914 15.9615 -41.3449 -1.5726 10.0884 0.142585 3.48884 -0.0423525 -3.40325 -5.76791 1.71501 -14.0411 -11.361 2.98399 0.0728673 
-10.9525 98.7023 -24.2155 -101.679 -54.9799 -86.8753 -172.998 -2.14307 96.656 -29.4983 9.92162 0.368872 81.16 7.84445 -5.18385 12.855 1.98661 -1.53675 178.645 29.1434 99.5511 -27.3764 -14.2244 -0.25782 72.2203 -6.67 -2.79161 19.1338 -1.40333 4.14968 -1.99377 8.30897 -91.5163 10.1961 -4.66389 -2.61056 -1.46869 -4.77424 -2.4025 -24.028 -3.66415 -3.89187 -4.01538 -3.66417 -3.89187 90.8242 -32.5984 -104.256 41.3717 -3.93671 10.1598 8.34392 -21.7502 -6.29024 -17.7371 0.415142 -11.9086 -87.3612 -41.8328 81.1649 -16.2104 16.6725 -47.7999 -1.4923 16.4459 0.343961 1.05539 -0.0565118 -3.41099 -2.06363 -0.20429 -18.7898 -10.1601 1.99591 1.44377 
-21.4085 94.6224 -16.7441 -105.273 -54.3777 -91.5493 -169.358 -14.7797 100.054 -28.853 9.22554 -0.165316 94.8814 12.2044 -8.84402 14.4553 -1.61339 3.29807 178.815 23.0287 99.9628 -12.8053 -12.5825 0.190559 65.8157 -4.03037 -1.75728 21.0896 -1.2719 3.79538 -2.07252 8.59385 -91.0096 9.6585 -4.58819 -1.64829 -2.00508 -4.6563 -1.44439 -24.582 -3.88061 -2.95237 -4.56936 -3.88059 -2.95237 91.8879 -36.1796 -101.14 39.4195 -3.55189 7.32529 8.06923 -25.1908 -4.39756 -19.5224 -0.134491 -8.08142 -87.9142 -42.9509 80.4911 -23.6858 15.3942 -41.8732 4.00319 29.4715 -5.44536 -1.10033 -0.0752485 -2.98382 -0.426911 0.174348 -22.8096 -8.14327 3.23308 1.09828 
